Coordinates
version=1
nRows=17
nColumns=36
inDegrees=yes

Units are S.I. units (second, meters, Newtons, ...)
If the header above contains a line with 'inDegrees', this indicates whether rotational values are in degrees (yes) or radians (no).

endheader
time	pelvis_tilt	pelvis_list	pelvis_rotation	pelvis_tx	pelvis_ty	pelvis_tz	hip_flexion_r	hip_adduction_r	hip_rotation_r	knee_angle_r	knee_angle_r_beta	ankle_angle_r	subtalar_angle_r	mtp_angle_r	hip_flexion_l	hip_adduction_l	hip_rotation_l	knee_angle_l	knee_angle_l_beta	ankle_angle_l	subtalar_angle_l	mtp_angle_l	lumbar_extension	lumbar_bending	lumbar_rotation	arm_flex_r	arm_add_r	arm_rot_r	elbow_flex_r	pro_sup_r	arm_flex_l	arm_add_l	arm_rot_l	elbow_flex_l	pro_sup_l
      0.32000000	      2.30975049	     -1.54314567	     -3.16343542	      0.27442269	      0.96520887	     -0.21702516	     -2.47881321	      6.60936910	      4.15348710	      6.82753232	      0.11916292	      7.87784908	     -8.79017737	     -6.66081018	     25.49925071	     -1.66256119	      2.64368303	     48.49307140	      0.84636376	     -2.88953342	    -16.32473567	     -6.66081018	     -7.36706473	      2.15205065	      5.13127337	      0.19001356	     -9.32721899	    -12.32351530	     40.10619490	    112.79624235	     -4.13462929	     -5.31125507	     -0.81164371	     17.76380521	    107.71128343
      0.33000000	      2.32377672	     -1.58387033	     -3.65425718	      0.28603362	      0.96496331	     -0.21588945	     -3.61570238	      6.58860979	      4.56656294	      6.25500772	      0.10917048	      8.48060714	     -8.22210288	     -6.67895205	     25.83690009	     -1.90920764	      2.32200642	     45.03340033	      0.78598111	     -3.28273322	    -16.49607517	     -6.67895205	     -7.44976364	      2.20732130	      5.74966588	      0.94233519	     -9.60228094	    -12.21232998	     40.85786505	    112.79846658	     -5.01935594	     -5.48606816	     -1.09325441	     17.23619856	    107.56052171
      0.34000000	      2.27662425	     -1.62884379	     -4.09121539	      0.29772749	      0.96434969	     -0.21507742	     -4.64287039	      6.52979290	      4.71359923	      5.76722169	      0.10065701	      9.21838781	     -7.24080960	     -6.72377563	     26.12007684	     -2.09828764	      2.04284478	     41.35804266	      0.72183402	     -4.39636882	    -17.39715545	     -6.72377563	     -7.45607985	      2.30599229	      6.22551501	      1.67953265	     -9.95716246	    -12.00772400	     41.68288284	    112.72263117	     -5.99263621	     -5.55879253	     -1.90264091	     16.88407442	    107.25717406
      0.35000000	      2.25012158	     -1.74042181	     -4.56718074	      0.30941564	      0.96350270	     -0.21396708	     -5.72786930	      6.57363935	      5.18705309	      5.24851909	      0.09160394	      9.80595860	     -6.83675274	     -6.74908013	     26.27351838	     -2.45272162	      1.67236883	     37.61102776	      0.65643627	     -5.00706679	    -17.15930769	     -6.74908013	     -7.49832957	      2.43126002	      6.78489759	      2.44815774	    -10.22065301	    -11.73801551	     42.35290803	    112.70763192	     -6.92834637	     -5.72186779	     -2.53122366	     16.61060493	    107.08363737
      0.36000000	      2.18898234	     -1.88479237	     -5.02190440	      0.32120860	      0.96234967	     -0.21300851	     -6.77101073	      6.63424471	      5.65115486	      4.76008942	      0.08307923	     10.34957887	     -6.53216791	     -6.76319273	     26.37048706	     -2.83691056	      1.24493485	     33.79361759	      0.58980989	     -5.64400535	    -16.67977105	     -6.76319273	     -7.49010189	      2.61136354	      7.30585584	      3.17816605	    -10.51725607	    -11.48426812	     43.01477148	    112.71522722	     -7.87096886	     -5.84399844	     -3.07658350	     16.30883176	    106.93825916
      0.37000000	      2.16023629	     -2.04607911	     -5.46371584	      0.33314131	      0.96103361	     -0.21213407	     -7.86637564	      6.69016618	      6.11756013	      4.26389344	      0.07441898	     10.88223344	     -6.17869715	     -6.77719319	     26.31061226	     -3.21222715	      0.80308351	     29.90539382	      0.52194759	     -6.23303064	    -16.03280382	     -6.77719319	     -7.51420928	      2.81289007	      7.77465621	      3.92414644	    -10.81792058	    -11.15315991	     43.67094715	    112.71809414	     -8.84561876	     -5.93500636	     -3.76902797	     16.04646265	    106.75709679
      0.38000000	      1.89904380	     -2.33457167	     -5.89196676	      0.34502709	      0.95908736	     -0.21136498	     -8.62138502	      6.89759447	      6.57869187	      3.96389532	      0.06918302	     11.24561479	     -5.90825732	     -6.78347968	     26.50786759	     -3.70063453	      0.56344098	     26.21490269	      0.45753637	     -6.47908811	    -15.20642641	     -6.78347968	     -7.28794974	      3.20108153	      8.15067759	      4.66076271	    -11.03875142	    -10.95451141	     44.30019170	    112.73785230	     -9.86527770	     -5.98584894	     -4.17604047	     15.71504763	    106.63495092
      0.39000000	      2.12395838	     -2.49299349	     -6.34422016	      0.35733171	      0.95769754	     -0.21052965	    -10.07824666	      6.87007168	      6.95399232	      3.34578662	      0.05839499	     11.92160289	     -5.53587426	     -6.79661787	     26.00145425	     -4.06274348	     -0.11551005	     22.43429884	      0.39155238	     -6.67275830	    -13.95359359	     -6.79661787	     -7.59274025	      3.34551904	      8.60154888	      5.39078043	    -11.34896977	    -10.43017756	     44.87532733	    112.74186360	    -10.80420817	     -6.04293533	     -5.09701825	     15.51826268	    106.36987987
      0.40000000	      2.22437977	     -2.73061424	     -6.81230989	      0.36955792	      0.95592066	     -0.20975284	    -11.29244894	      6.92434487	      7.35147582	      2.96733896	      0.05178983	     12.50995502	     -4.86015346	     -6.82360566	     25.60312092	     -4.47976795	     -0.58046567	     18.87247776	      0.32938687	     -6.25749691	    -12.31352813	     -6.82360566	     -7.77577410	      3.57375468	      8.80030738	      6.29597854	    -11.60140924	     -9.62074713	     45.35438356	    112.60622778	    -11.95939255	     -5.94983278	     -6.78206972	     15.69361549	    105.86548685
      0.41000000	      2.21008148	     -3.01338195	     -7.24297029	      0.38180452	      0.95375161	     -0.20910828	    -12.32653091	      7.01851299	      7.54581169	      2.69874556	      0.04710200	     13.26086152	     -4.21729229	     -6.89977360	     25.37755760	     -4.93311112	     -0.96460729	     15.64601084	      0.27307440	     -5.53138158	    -10.48642442	     -6.89977360	     -7.84072549	      3.84708365	      8.70367610	      7.46261241	    -11.82171116	     -8.38256950	     45.41563559	    112.48435990	    -13.45251892	     -5.59812671	    -10.40553453	     16.81426226	    105.32370521
      0.42000000	      2.13099645	     -3.28953079	     -7.68755048	      0.39406079	      0.95145806	     -0.20857895	    -13.26604894	      7.10184176	      7.99910141	      2.48633970	      0.04339481	     13.73490430	     -4.01037622	     -6.90831474	     25.11351718	     -5.31582410	     -0.89042862	     12.49803807	      0.21813191	     -5.22347398	     -9.57183067	     -6.90831474	     -7.81326111	      4.18263724	      9.09616986	      8.07010662	    -11.98815054	     -8.17951699	     46.02813005	    112.41158507	    -14.31202245	     -5.62724962	    -10.69405022	     16.51997854	    105.23002025
      0.43000000	      2.09559187	     -3.55359037	     -8.15403982	      0.40632432	      0.94916215	     -0.20806144	    -14.22046084	      7.13624185	      8.42826921	      2.33946821	      0.04083142	     14.19164577	     -3.71994331	     -6.91572152	     24.77878304	     -5.70210136	     -0.78865256	      9.62193612	      0.16793447	     -4.70210069	     -8.71416821	     -6.91572152	     -7.85884053	      4.47076356	      9.47613678	      8.70154348	    -12.13031897	     -7.91354621	     46.64587767	    112.36746181	    -15.10015422	     -5.62798894	    -11.02443921	     16.27358229	    105.10386670
      0.44000000	      2.23368639	     -3.76934717	     -8.56423095	      0.41874722	      0.94710006	     -0.20765638	    -15.38139246	      7.07628793	      8.69765313	      2.15327283	      0.03758170	     14.78200035	     -3.34299131	     -6.92642879	     24.23690737	     -6.00957587	     -0.75733113	      7.04790542	      0.12300915	     -4.08117121	     -7.90839456	     -6.92642879	     -8.10219726	      4.66773840	      9.84541420	      9.22965390	    -12.30617783	     -7.50256107	     47.23035820	    112.36884251	    -15.79973824	     -5.63074874	    -11.56664680	     16.14659651	    104.93314841
      0.45000000	      2.22642685	     -3.98258428	     -8.98250373	      0.43117230	      0.94483880	     -0.20730481	    -16.28097865	      7.02659814	      8.95930717	      2.14952988	      0.03751637	     15.29354651	     -2.93291313	     -6.93775742	     23.91695534	     -6.33502835	     -0.69006489	      4.97466802	      0.08682434	     -3.45117601	     -7.43624862	     -6.93775742	     -8.17693020	      4.88693218	     10.15348170	      9.74805986	    -12.43680673	     -7.16090438	     47.77525573	    112.38596607	    -16.52112595	     -5.61621473	    -12.16429204	     16.09226217	    104.75452222
      0.46000000	      2.11828485	     -4.16488937	     -9.40021246	      0.44358794	      0.94247550	     -0.20696623	    -16.99153526	      6.95793001	      9.26391404	      2.29716232	      0.04009305	     15.68300880	     -2.63692426	     -6.94565188	     23.78818164	     -6.63823429	     -0.66657865	      3.43393619	      0.05993349	     -2.85246783	     -7.26267581	     -6.94565188	     -8.15350389	      5.05918271	     10.44585299	     10.19886153	    -12.45631246	     -6.94202736	     48.29095171	    112.37797423	    -17.15556797	     -5.60582409	    -12.58889323	     16.01057176	    104.60452986
      0.47000000	      2.04844614	     -4.28061347	     -9.77235773	      0.45614583	      0.94023768	     -0.20672538	    -17.69814802	      6.81428180	      9.45147522	      2.50940665	      0.04379741	     16.01036714	     -2.43554920	     -6.95195197	     23.73356069	     -6.84526985	     -0.84250131	      2.51471974	      0.04389014	     -2.31188865	     -7.33699394	     -6.95195197	     -8.14816403	      5.15282736	     10.70635026	     10.53674953	    -12.43339195	     -6.77505962	     48.79397905	    112.37547309	    -17.69317323	     -5.61754598	    -12.94357308	     15.91536053	    104.47151670
      0.48000000	      1.94396210	     -4.36599520	    -10.04411177	      0.46892210	      0.93805609	     -0.20659725	    -18.34332167	      6.67194535	      9.48426292	      2.74739597	      0.04795111	     16.16426671	     -2.39048869	     -6.95458306	     23.80973044	     -6.96494101	     -1.14880940	      2.14141754	      0.03737479	     -1.94468457	     -7.57734087	     -6.95458306	     -8.05627850	      5.21201200	     10.89739424	     10.77584671	    -12.37146288	     -6.71172067	     49.15975758	    112.41338683	    -18.14980837	     -5.67361314	    -13.12664279	     15.76570663	    104.41294842
